HIERARCHY
ROOT Hips
{
	OFFSET 0.053599 88.859886 3.107447
	CHANNELS 6 Xposition Yposition Zposition Zrotation Yrotation Xrotation 
	JOINT Spine
	{
		OFFSET -0.000000 8.814246 -2.080107
		CHANNELS 3 Zrotation Yrotation Xrotation
		JOINT Spine1
		{
			OFFSET 0.000000 8.844141 0.000000
			CHANNELS 3 Zrotation Yrotation Xrotation
			JOINT Spine2
			{
				OFFSET -0.000000 11.682268 0.000000
				CHANNELS 3 Zrotation Yrotation Xrotation
				JOINT Spine3
				{
					OFFSET 0.000000 11.746700 0.000000
					CHANNELS 3 Zrotation Yrotation Xrotation
					JOINT Neck
					{
						OFFSET -0.000000 17.658264 -0.000000
						CHANNELS 3 Zrotation Yrotation Xrotation
						JOINT Neck1
						{
							OFFSET -0.000000 5.101515 -0.000000
							CHANNELS 3 Zrotation Yrotation Xrotation
							JOINT Head
							{
								OFFSET 0.000000 5.101515 0.000000
								CHANNELS 3 Zrotation Yrotation Xrotation
								JOINT HeadEnd
								{
									OFFSET 0.000000 11.655085 0.000000
									CHANNELS 3 Zrotation Yrotation Xrotation
									End Site
									{
										OFFSET 0.000000 0.000000 0.000000
									}
								}
							}
						}
					}
					JOINT RightShoulder
					{
						OFFSET -2.625389 11.175210 0.000000
						CHANNELS 3 Zrotation Yrotation Xrotation
						JOINT RightArm
						{
							OFFSET -0.000000 10.434715 -0.000000
							CHANNELS 3 Zrotation Yrotation Xrotation
							JOINT RightForeArm
							{
								OFFSET -0.000000 29.628420 0.000000
								CHANNELS 3 Zrotation Yrotation Xrotation
								JOINT RightHand
								{
									OFFSET -0.000000 22.857611 0.000000
									CHANNELS 3 Zrotation Yrotation Xrotation
									JOINT RightHandThumb1
									{
										OFFSET -2.867323 3.959563 2.944291
										CHANNELS 3 Zrotation Yrotation Xrotation
										JOINT RightHandThumb2
										{
											OFFSET 0.000000 3.350399 0.000000
											CHANNELS 3 Zrotation Yrotation Xrotation
											JOINT RightHandThumb3
											{
												OFFSET 0.000000 3.756509 -0.000000
												CHANNELS 3 Zrotation Yrotation Xrotation
												JOINT RightHandThumb4
												{
													OFFSET 0.000000 3.147345 0.000000
													CHANNELS 3 Zrotation Yrotation Xrotation
													End Site
													{
														OFFSET 0.000000 0.000000 0.000000
													}
												}
											}
										}
									}
									JOINT RightHandIndex1
									{
										OFFSET -0.086752 10.030893 2.345280
										CHANNELS 3 Zrotation Yrotation Xrotation
										JOINT RightHandIndex2
										{
											OFFSET -0.000000 4.061090 0.000000
											CHANNELS 3 Zrotation Yrotation Xrotation
											JOINT RightHandIndex3
											{
												OFFSET -0.000000 3.248873 0.000000
												CHANNELS 3 Zrotation Yrotation Xrotation
												JOINT RightHandIndex4
												{
													OFFSET 0.000000 2.639709 -0.000000
													CHANNELS 3 Zrotation Yrotation Xrotation
													End Site
													{
														OFFSET 0.000000 0.000000 0.000000
													}
												}
											}
										}
									}
									JOINT RightHandMiddle1
									{
										OFFSET 0.104102 9.502952 0.006768
										CHANNELS 3 Zrotation Yrotation Xrotation
										JOINT RightHandMiddle2
										{
											OFFSET 0.000000 4.568727 0.000000
											CHANNELS 3 Zrotation Yrotation Xrotation
											JOINT RightHandMiddle3
											{
												OFFSET 0.000000 3.654981 -0.000000
												CHANNELS 3 Zrotation Yrotation Xrotation
												JOINT RightHandMiddle4
												{
													OFFSET -0.000000 2.741236 -0.000000
													CHANNELS 3 Zrotation Yrotation Xrotation
													End Site
													{
														OFFSET 0.000000 0.000000 0.000000
													}
												}
											}
										}
									}
									JOINT RightHandRing1
									{
										OFFSET 0.086752 8.921708 -2.267442
										CHANNELS 3 Zrotation Yrotation Xrotation
										JOINT RightHandRing2
										{
											OFFSET -0.000000 4.061090 0.000000
											CHANNELS 3 Zrotation Yrotation Xrotation
											JOINT RightHandRing3
											{
												OFFSET 0.000000 3.654981 -0.000000
												CHANNELS 3 Zrotation Yrotation Xrotation
												JOINT RightHandRing4
												{
													OFFSET 0.000000 2.741236 -0.000000
													CHANNELS 3 Zrotation Yrotation Xrotation
													End Site
													{
														OFFSET 0.000000 0.000000 0.000000
													}
												}
											}
										}
									}
									JOINT RightHandPinky1
									{
										OFFSET -0.173504 7.976997 -4.467199
										CHANNELS 3 Zrotation Yrotation Xrotation
										JOINT RightHandPinky2
										{
											OFFSET 0.000000 3.350399 -0.000000
											CHANNELS 3 Zrotation Yrotation Xrotation
											JOINT RightHandPinky3
											{
												OFFSET -0.000000 2.842763 0.000000
												CHANNELS 3 Zrotation Yrotation Xrotation
												JOINT RightHandPinky4
												{
													OFFSET -0.000000 2.639709 0.000000
													CHANNELS 3 Zrotation Yrotation Xrotation
													End Site
													{
														OFFSET 0.000000 0.000000 0.000000
													}
												}
											}
										}
									}
									JOINT RightForeArmEnd
									{
										OFFSET 0.000000 0.000000 0.000000
										CHANNELS 3 Zrotation Yrotation Xrotation
										End Site
										{
											OFFSET 0.000000 0.000000 0.000000
										}
									}
								}
								JOINT RightArmEnd
								{
									OFFSET 0.000000 0.000000 0.000000
									CHANNELS 3 Zrotation Yrotation Xrotation
									End Site
									{
										OFFSET 0.000000 0.000000 0.000000
									}
								}
							}
						}
					}
					JOINT LeftShoulder
					{
						OFFSET 2.625389 11.175210 0.000000
						CHANNELS 3 Zrotation Yrotation Xrotation
						JOINT LeftArm
						{
							OFFSET 0.000000 10.813635 -0.000000
							CHANNELS 3 Zrotation Yrotation Xrotation
							JOINT LeftForeArm
							{
								OFFSET 0.000000 28.724781 0.000000
								CHANNELS 3 Zrotation Yrotation Xrotation
								JOINT LeftHand
								{
									OFFSET 0.644384 25.716167 -0.328871
									CHANNELS 3 Zrotation Yrotation Xrotation
									JOINT LeftHandThumb1
									{
										OFFSET 2.867323 3.959563 2.944291
										CHANNELS 3 Zrotation Yrotation Xrotation
										JOINT LeftHandThumb2
										{
											OFFSET 0.000000 3.350399 0.000000
											CHANNELS 3 Zrotation Yrotation Xrotation
											JOINT LeftHandThumb3
											{
												OFFSET -0.000000 3.756509 0.000000
												CHANNELS 3 Zrotation Yrotation Xrotation
												JOINT LeftHandThumb4
												{
													OFFSET -0.000000 3.100000 0.000000
													CHANNELS 3 Zrotation Yrotation Xrotation
													End Site
													{
														OFFSET 0.000000 0.000000 0.000000
													}
												}
											}
										}
									}
									JOINT LeftHandIndex1
									{
										OFFSET 0.086752 10.030893 2.345280
										CHANNELS 3 Zrotation Yrotation Xrotation
										JOINT LeftHandIndex2
										{
											OFFSET -0.000000 4.061090 -0.000000
											CHANNELS 3 Zrotation Yrotation Xrotation
											JOINT LeftHandIndex3
											{
												OFFSET 0.000000 3.248873 -0.000000
												CHANNELS 3 Zrotation Yrotation Xrotation
												JOINT LeftHandIndex4
												{
													OFFSET 0.000000 2.639709 -0.000000
													CHANNELS 3 Zrotation Yrotation Xrotation
													End Site
													{
														OFFSET 0.000000 0.000000 0.000000
													}
												}
											}
										}
									}
									JOINT LeftHandMiddle1
									{
										OFFSET -0.104102 9.502952 0.006768
										CHANNELS 3 Zrotation Yrotation Xrotation
										JOINT LeftHandMiddle2
										{
											OFFSET -0.000000 4.568727 -0.000000
											CHANNELS 3 Zrotation Yrotation Xrotation
											JOINT LeftHandMiddle3
											{
												OFFSET 0.000000 3.654981 0.000000
												CHANNELS 3 Zrotation Yrotation Xrotation
												JOINT LeftHandMiddle4
												{
													OFFSET 0.000000 2.741236 -0.000000
													CHANNELS 3 Zrotation Yrotation Xrotation
													End Site
													{
														OFFSET 0.000000 0.000000 0.000000
													}
												}
											}
										}
									}
									JOINT LeftHandRing1
									{
										OFFSET -0.086752 8.921708 -2.267442
										CHANNELS 3 Zrotation Yrotation Xrotation
										JOINT LeftHandRing2
										{
											OFFSET 0.000000 4.061090 0.000000
											CHANNELS 3 Zrotation Yrotation Xrotation
											JOINT LeftHandRing3
											{
												OFFSET 0.000000 3.654981 0.000000
												CHANNELS 3 Zrotation Yrotation Xrotation
												JOINT LeftHandRing4
												{
													OFFSET 0.000000 2.741236 0.000000
													CHANNELS 3 Zrotation Yrotation Xrotation
													End Site
													{
														OFFSET 0.000000 0.000000 0.000000
													}
												}
											}
										}
									}
									JOINT LeftHandPinky1
									{
										OFFSET 0.173504 7.976997 -4.467199
										CHANNELS 3 Zrotation Yrotation Xrotation
										JOINT LeftHandPinky2
										{
											OFFSET -0.000000 3.350399 -0.000000
											CHANNELS 3 Zrotation Yrotation Xrotation
											JOINT LeftHandPinky3
											{
												OFFSET 0.000000 2.842763 0.000000
												CHANNELS 3 Zrotation Yrotation Xrotation
												JOINT LeftHandPinky4
												{
													OFFSET -0.000000 2.639709 -0.000000
													CHANNELS 3 Zrotation Yrotation Xrotation
													End Site
													{
														OFFSET 0.000000 0.000000 0.000000
													}
												}
											}
										}
									}
									JOINT LeftForeArmEnd
									{
										OFFSET 0.000000 0.000000 0.000000
										CHANNELS 3 Zrotation Yrotation Xrotation
										End Site
										{
											OFFSET 0.000000 0.000000 0.000000
										}
									}
								}
								JOINT LeftArmEnd
								{
									OFFSET 0.000000 0.000000 0.000000
									CHANNELS 3 Zrotation Yrotation Xrotation
									End Site
									{
										OFFSET 0.000000 0.000000 0.000000
									}
								}
							}
						}
					}
				}
			}
		}
	}
	JOINT RightUpLeg
	{
		OFFSET -11.289943 0.000000 0.000000
		CHANNELS 3 Zrotation Yrotation Xrotation
		JOINT RightLeg
		{
			OFFSET 0.000000 -38.200325 0.000000
			CHANNELS 3 Zrotation Yrotation Xrotation
			JOINT RightFoot
			{
				OFFSET -0.000000 -39.900856 -0.000000
				CHANNELS 3 Zrotation Yrotation Xrotation
				JOINT RightToeBase
				{
					OFFSET 0.000000 0.000000 15.261641
					CHANNELS 3 Zrotation Yrotation Xrotation
					JOINT RightToeBaseEnd
					{
						OFFSET 0.000000 0.000000 7.370709
						CHANNELS 3 Zrotation Yrotation Xrotation
						End Site
						{
							OFFSET 0.000000 0.000000 0.000000
						}
					}
				}
				JOINT RightLegEnd
				{
					OFFSET 0.000000 0.000000 0.000000
					CHANNELS 3 Zrotation Yrotation Xrotation
					End Site
					{
						OFFSET 0.000000 0.000000 0.000000
					}
				}
			}
			JOINT RightUpLegEnd
			{
				OFFSET 0.000000 0.000000 0.000000
				CHANNELS 3 Zrotation Yrotation Xrotation
				End Site
				{
					OFFSET 0.000000 0.000000 0.000000
				}
			}
		}
	}
	JOINT LeftUpLeg
	{
		OFFSET 11.315661 -0.000000 0.000000
		CHANNELS 3 Zrotation Yrotation Xrotation
		JOINT LeftLeg
		{
			OFFSET -0.000000 -38.200325 -0.000000
			CHANNELS 3 Zrotation Yrotation Xrotation
			JOINT LeftFoot
			{
				OFFSET 0.000000 -39.900856 -0.000000
				CHANNELS 3 Zrotation Yrotation Xrotation
				JOINT LeftToeBase
				{
					OFFSET -0.000000 -0.000000 15.261641
					CHANNELS 3 Zrotation Yrotation Xrotation
					JOINT LeftToeBaseEnd
					{
						OFFSET 0.000000 -0.000000 7.539996
						CHANNELS 3 Zrotation Yrotation Xrotation
						End Site
						{
							OFFSET 0.000000 0.000000 0.000000
						}
					}
				}
				JOINT LeftLegEnd
				{
					OFFSET 0.000000 0.000000 0.000000
					CHANNELS 3 Zrotation Yrotation Xrotation
					End Site
					{
						OFFSET 0.000000 0.000000 0.000000
					}
				}
			}
			JOINT LeftUpLegEnd
			{
				OFFSET 0.000000 0.000000 0.000000
				CHANNELS 3 Zrotation Yrotation Xrotation
				End Site
				{
					OFFSET 0.000000 0.000000 0.000000
				}
			}
		}
	}
}
MOTION
Frames: 5
Frame Time: 0.016667
0.053599 88.859886 3.107447 0.490481 0.055862 -6.497332 0.023754 -0.000539 5.886370 -1.012250 0.067046 0.861970 0.478071 -2.416792 3.829567 0.155030 -0.780500 1.929224 2.330515 0.848112 5.016849 0.371683 2.117863 -3.221864 -0.714533 -0.852149 -18.222401 0.000000 0.000000 0.000000 92.418694 -0.394880 9.707912 65.456573 -33.431271 5.091406 -0.130291 12.440493 22.353239 6.882370 13.743960 -6.458578 19.861429 30.097643 62.040974 -8.462701 -12.164348 -20.450144 -6.325801 -8.139122 -14.332924 0.000000 0.000000 0.000000 12.621688 -10.712396 0.231899 8.905269 0.376633 1.323778 8.902945 -0.111869 1.243825 0.000000 0.000000 0.000000 11.194713 -5.446730 -1.239449 7.889823 0.455857 0.481039 7.889222 -0.037052 0.412494 0.000000 0.000000 0.000000 10.912717 2.564455 -1.535874 7.825817 -0.947299 -0.611652 7.824722 0.070320 -0.477096 0.000000 0.000000 0.000000 9.631022 11.185607 -2.805182 7.161172 -1.900893 -1.652070 7.157181 0.085565 -1.400512 0.000000 0.000000 0.000000 0.000000 0.000000 0.000000 0.000000 0.000000 0.000000 -90.370071 0.051974 5.208683 -71.842018 19.306828 -7.574249 -0.664994 -8.642401 40.885647 -0.139946 -25.486511 -15.477552 -20.250540 -29.996990 61.691063 8.807010 12.918287 -21.553112 6.618044 8.635277 -15.110494 0.000000 0.000000 0.000000 -16.168392 -5.636370 -1.918335 -11.569428 0.324957 -1.715407 -11.569072 -0.164917 -1.615128 0.000000 0.000000 0.000000 -15.643335 -0.758781 -1.694552 -11.169063 0.440303 -0.678956 -11.168735 -0.058746 -0.582722 0.000000 0.000000 0.000000 -18.003109 7.607869 -1.025503 -12.703986 -0.874371 0.992852 -12.702737 0.099213 0.772902 0.000000 0.000000 0.000000 -18.852142 16.262062 -0.245862 -13.102126 -1.657223 2.980032 -13.096694 0.281077 2.526406 0.000000 0.000000 0.000000 0.000000 0.000000 0.000000 0.000000 0.000000 0.000000 -1.045058 -10.518975 11.869204 -0.078405 -0.635030 3.758801 -2.197730 -7.901679 18.681496 -0.890004 0.828132 -18.870453 0.000000 0.000000 0.000000 0.000000 0.000000 0.000000 0.000000 0.000000 0.000000 -1.784023 -6.543907 7.474547 0.053202 0.398207 7.545935 3.843466 -1.785134 17.966772 0.194973 -0.390531 -20.817129 0.000000 0.000000 0.000000 0.000000 0.000000 0.000000 0.000000 0.000000 0.000000 
0.113801 88.923355 2.914863 -0.280918 -0.307601 -7.340955 1.308154 -0.183351 6.634998 -0.949220 0.114286 2.706826 0.735994 -1.600585 1.541409 -0.899581 -0.169492 3.119887 1.268391 2.304565 3.161636 0.359311 2.957177 -3.787555 -1.058500 -0.607387 -18.466120 0.000000 0.000000 0.000000 92.940483 -0.456904 9.606152 64.953873 -32.199497 4.112131 -0.123068 13.100275 23.173683 6.788544 13.060613 -6.977652 19.871284 30.096695 62.083206 -8.423655 -12.071831 -20.421015 -6.287352 -8.088548 -14.264557 0.000000 0.000000 0.000000 11.993257 -10.746469 -0.307959 9.010448 0.334335 1.328693 8.798375 -0.106678 1.264335 0.000000 0.000000 0.000000 10.830132 -5.349970 -1.098513 7.666081 0.422515 0.517532 8.034846 -0.052477 0.442713 0.000000 0.000000 0.000000 10.272380 2.582769 -0.832778 7.458642 -0.889759 -0.851654 7.503284 0.067002 -0.625775 0.000000 0.000000 0.000000 9.565829 11.057239 -1.761336 7.141114 -1.650673 -2.427767 6.728621 0.276776 -2.050355 0.000000 0.000000 0.000000 0.000000 0.000000 0.000000 0.000000 0.000000 0.000000 -89.886749 0.135176 5.994448 -71.722916 19.533012 -6.570027 -1.230064 -9.118802 40.442493 1.990897 -23.119038 -15.997895 -20.242579 -29.965162 61.609676 8.888870 12.939953 -21.673985 6.652461 8.660892 -15.149273 0.000000 0.000000 0.000000 -17.242128 -5.478307 -0.088348 -10.983214 0.293281 -1.399218 -11.099661 -0.168898 -1.290871 0.000000 0.000000 0.000000 -16.576166 -0.498294 -0.880061 -10.862909 0.408190 -0.591586 -10.787868 -0.066408 -0.475423 0.000000 0.000000 0.000000 -18.717733 7.528031 -0.731806 -12.356906 -0.869008 0.850262 -12.334261 0.083695 0.660611 0.000000 0.000000 0.000000 -19.944815 15.927408 -1.155408 -12.916986 -1.550674 2.650857 -12.770720 0.343879 2.253971 0.000000 0.000000 0.000000 0.000000 0.000000 0.000000 0.000000 0.000000 0.000000 0.127739 -9.188403 11.017146 -0.048458 -0.639476 6.152260 -2.887996 -8.988064 17.710783 -0.799952 0.756669 -19.020416 0.000000 0.000000 0.000000 0.000000 0.000000 0.000000 0.000000 0.000000 0.000000 -1.532278 -6.359463 7.196091 0.058048 0.369915 8.538991 3.715994 -0.531858 16.953423 0.392456 -0.473717 -20.495808 0.000000 0.000000 0.000000 0.000000 0.000000 0.000000 0.000000 0.000000 0.000000 
0.120027 88.910255 2.906852 -0.310699 -0.375607 -7.423641 1.310727 -0.169454 6.670971 -0.880551 0.099617 2.692469 0.741882 -1.568976 1.633501 -0.882591 -0.140921 3.179599 1.251512 2.201642 3.102681 0.352122 2.875399 -3.776048 -1.072356 -0.644206 -18.444849 0.000000 0.000000 0.000000 92.813286 -0.460740 9.535790 64.917114 -32.486622 4.161148 -0.070454 13.163188 23.211407 6.608015 12.581912 -7.001476 19.853548 30.100437 62.088142 -8.420075 -12.052104 -20.394495 -6.284746 -8.071074 -14.245049 0.000000 0.000000 0.000000 11.992734 -10.746361 -0.350092 9.064823 0.339475 1.306547 8.868862 -0.099622 1.242886 0.000000 0.000000 0.000000 10.863759 -5.344852 -1.090087 7.732265 0.423056 0.508245 8.102196 -0.050759 0.435750 0.000000 0.000000 0.000000 10.312899 2.566031 -0.786693 7.558352 -0.890768 -0.841693 7.603557 0.063870 -0.615315 0.000000 0.000000 0.000000 9.545860 11.032143 -1.636357 7.156888 -1.656011 -2.412899 6.766905 0.269127 -2.027929 0.000000 0.000000 0.000000 0.000000 0.000000 0.000000 0.000000 0.000000 0.000000 -89.833893 0.146825 6.014176 -71.913208 19.649183 -6.612803 -1.231009 -9.191194 40.516113 2.177028 -22.717997 -15.967397 -20.234224 -29.970512 61.620605 8.871742 12.920066 -21.644878 6.641004 8.643381 -15.122928 0.000000 0.000000 0.000000 -17.166965 -5.511644 -0.156685 -11.066228 0.293756 -1.390504 -11.155809 -0.166142 -1.285715 0.000000 0.000000 0.000000 -16.506891 -0.518563 -0.926387 -10.944366 0.407834 -0.592045 -10.870834 -0.067077 -0.476556 0.000000 0.000000 0.000000 -18.712503 7.521591 -0.793509 -12.439377 -0.868134 0.853530 -12.400856 0.083817 0.662460 0.000000 0.000000 0.000000 -19.945446 15.919551 -1.228508 -12.943864 -1.551731 2.644099 -12.771991 0.342422 2.261108 0.000000 0.000000 0.000000 0.000000 0.000000 0.000000 0.000000 0.000000 0.000000 0.148718 -9.119393 11.138081 -0.048739 -0.642035 6.057902 -2.841444 -9.010011 17.755934 -0.806892 0.756371 -19.022959 0.000000 0.000000 0.000000 0.000000 0.000000 0.000000 0.000000 0.000000 0.000000 -1.496411 -6.306330 7.190030 0.056613 0.357819 8.651170 3.716899 -0.515926 16.932362 0.372921 -0.475187 -20.519793 0.000000 0.000000 0.000000 0.000000 0.000000 0.000000 0.000000 0.000000 0.000000 
0.124718 88.904823 2.919843 -0.326579 -0.437029 -7.537190 1.319306 -0.161223 6.681507 -0.858914 0.098457 2.687710 0.759432 -1.548369 1.704953 -0.877827 -0.105994 3.268421 1.228776 2.135624 3.106418 0.361821 2.814429 -3.727660 -1.064112 -0.657370 -18.453810 0.000000 0.000000 0.000000 92.716148 -0.466174 9.483922 64.937088 -32.443806 4.081804 -0.046939 13.225965 23.354410 6.658213 12.110854 -7.026854 19.860548 30.101124 62.078487 -8.425476 -12.079801 -20.427586 -6.291448 -8.082768 -14.267646 0.000000 0.000000 0.000000 12.084128 -10.777854 -0.356949 9.189290 0.346724 1.276941 9.002988 -0.092257 1.215543 0.000000 0.000000 0.000000 10.968435 -5.360523 -1.062158 7.858927 0.425827 0.495697 8.224907 -0.048030 0.425768 0.000000 0.000000 0.000000 10.396486 2.558378 -0.710877 7.684490 -0.893909 -0.829183 7.726773 0.060957 -0.603953 0.000000 0.000000 0.000000 9.560531 11.037444 -1.479812 7.209583 -1.663522 -2.396121 6.837735 0.263231 -2.012227 0.000000 0.000000 0.000000 0.000000 0.000000 0.000000 0.000000 0.000000 0.000000 -89.802399 0.161359 6.009017 -72.057213 19.675964 -6.635875 -1.199396 -9.249024 40.551651 2.202187 -22.327744 -15.836976 -20.246265 -29.971436 61.616116 8.870667 12.924312 -21.667074 6.642377 8.649519 -15.131196 0.000000 0.000000 0.000000 -17.214209 -5.530094 -0.140578 -11.127999 0.296819 -1.373603 -11.194584 -0.162577 -1.272776 0.000000 0.000000 0.000000 -16.546394 -0.523014 -0.900697 -11.003374 0.408965 -0.586295 -10.940344 -0.066670 -0.471807 0.000000 0.000000 0.000000 -18.804493 7.529404 -0.744011 -12.494823 -0.869596 0.852657 -12.455999 0.082731 0.660092 0.000000 0.000000 0.000000 -20.067926 15.918356 -1.191004 -12.979300 -1.554397 2.643876 -12.783272 0.343412 2.268987 0.000000 0.000000 0.000000 0.000000 0.000000 0.000000 0.000000 0.000000 0.000000 0.147374 -9.040193 11.284577 -0.048731 -0.640425 6.036077 -2.799690 -9.024395 17.785847 -0.810814 0.756459 -19.035582 0.000000 0.000000 0.000000 0.000000 0.000000 0.000000 0.000000 0.000000 0.000000 -1.481379 -6.277731 7.218392 0.056147 0.354937 8.776937 3.719301 -0.504573 16.896038 0.363470 -0.478219 -20.528355 0.000000 0.000000 0.000000 0.000000 0.000000 0.000000 0.000000 0.000000 0.000000 
0.132749 88.901970 2.935256 -0.343549 -0.489078 -7.650154 1.335784 -0.156230 6.687491 -0.848129 0.098290 2.680782 0.778882 -1.517155 1.772768 -0.875772 -0.074434 3.346426 1.174697 2.119614 3.170331 0.373593 2.778229 -3.660442 -1.046707 -0.662052 -18.499088 0.000000 0.000000 0.000000 92.666740 -0.462837 9.458546 65.044640 -32.299767 3.947726 -0.030971 13.353825 23.483459 6.687275 11.715323 -7.010726 19.871338 30.099794 62.062660 -8.436422 -12.116127 -20.470694 -6.302564 -8.101863 -14.294966 0.000000 0.000000 0.000000 12.226909 -10.813541 -0.329407 9.306832 0.358055 1.237194 9.128882 -0.080657 1.180864 0.000000 0.000000 0.000000 11.123609 -5.385708 -1.008745 7.979202 0.430941 0.478433 8.338351 -0.043575 0.412253 0.000000 0.000000 0.000000 10.535737 2.540836 -0.604239 7.803844 -0.900173 -0.807571 7.838646 0.055693 -0.586556 0.000000 0.000000 0.000000 9.622450 11.035513 -1.300460 7.272483 -1.680933 -2.348099 6.910465 0.248533 -1.972129 0.000000 0.000000 0.000000 0.000000 0.000000 0.000000 0.000000 0.000000 0.000000 -89.793915 0.166172 5.995978 -72.105034 19.681520 -6.619932 -1.172982 -9.295662 40.629482 2.055059 -21.981983 -15.711576 -20.249990 -29.971359 61.614292 8.876626 12.916063 -21.674170 6.642522 8.644463 -15.131767 0.000000 0.000000 0.000000 -17.279667 -5.532512 -0.092682 -11.149687 0.308854 -1.327041 -11.201561 -0.150058 -1.233098 0.000000 0.000000 0.000000 -16.613291 -0.518265 -0.842944 -11.017658 0.414150 -0.567558 -10.971231 -0.062638 -0.456544 0.000000 0.000000 0.000000 -18.901939 7.532919 -0.654207 -12.517591 -0.876711 0.834410 -12.472332 0.077257 0.645352 0.000000 0.000000 0.000000 -20.202408 15.905976 -1.119866 -12.993345 -1.573245 2.593621 -12.774706 0.329171 2.234574 0.000000 0.000000 0.000000 0.000000 0.000000 0.000000 0.000000 0.000000 0.000000 0.141802 -8.955009 11.426593 -0.048936 -0.638090 6.036629 -2.766543 -9.013103 17.808619 -0.812461 0.753735 -19.052307 0.000000 0.000000 0.000000 0.000000 0.000000 0.000000 0.000000 0.000000 0.000000 -1.476491 -6.276064 7.258206 0.055666 0.350311 8.889894 3.721391 -0.477474 16.872272 0.356406 -0.478550 -20.536400 0.000000 0.000000 0.000000 0.000000 0.000000 0.000000 0.000000 0.000000 0.000000 
